<svg width="188" height="222" viewBox="0 0 188 222" fill="none" xmlns="http://www.w3.org/2000/svg">
<rect x="13.5" y="2.5" width="172" height="217" rx="6.5" fill="#6D85C1" stroke="#270A3B" stroke-width="5"/>
<rect x="2.5" y="2.5" width="172" height="217" rx="6.5" fill="#B2BFDF" stroke="#270A3B" stroke-width="5"/>
<mask id="path-3-inside-1_26_25" fill="white">
<path fill-rule="evenodd" clip-rule="evenodd" d="M16 0C7.16344 0 0 7.16345 0 16V206C0 214.837 7.16345 222 16 222H109.117C107.969 221.415 107.591 219.768 108.659 218.76L162.771 167.678C163.136 167.334 163.569 167.162 164 167.133V16C164 7.16344 156.837 0 148 0H16Z"/>
</mask>
<path fill-rule="evenodd" clip-rule="evenodd" d="M16 0C7.16344 0 0 7.16345 0 16V206C0 214.837 7.16345 222 16 222H109.117C107.969 221.415 107.591 219.768 108.659 218.76L162.771 167.678C163.136 167.334 163.569 167.162 164 167.133V16C164 7.16344 156.837 0 148 0H16Z" fill="#FDD5FD"/>
<path d="M109.117 222V227L111.386 217.544L109.117 222ZM108.659 218.76L105.227 215.124L105.227 215.124L108.659 218.76ZM162.771 167.678L159.338 164.043L159.338 164.043L162.771 167.678ZM164 167.133L164.331 172.122L169 171.813V167.133H164ZM5 16C5 9.92487 9.92487 5 16 5V-5C4.40202 -5 -5 4.40203 -5 16H5ZM5 206V16H-5V206H5ZM16 217C9.92487 217 5 212.075 5 206H-5C-5 217.598 4.40202 227 16 227V217ZM109.117 217H16V227H109.117V217ZM111.386 217.544C112.315 218.017 112.842 218.859 112.986 219.696C113.143 220.618 112.857 221.673 112.092 222.396L105.227 215.124C101.422 218.715 102.896 224.443 106.848 226.456L111.386 217.544ZM112.092 222.396L166.203 171.314L159.338 164.043L105.227 215.124L112.092 222.396ZM166.203 171.314C165.703 171.787 165.031 172.076 164.331 172.122L163.669 162.144C162.106 162.248 160.569 162.881 159.338 164.043L166.203 171.314ZM159 16V167.133H169V16H159ZM148 5C154.075 5 159 9.92487 159 16H169C169 4.40202 159.598 -5 148 -5V5ZM16 5H148V-5H16V5Z" fill="#270A3B" mask="url(#path-3-inside-1_26_25)"/>
<path fill-rule="evenodd" clip-rule="evenodd" d="M98 20C93.0294 20 89 24.0294 89 29V119C89 123.971 93.0294 128 98 128H126.856L148 101.009V29C148 24.0294 143.971 20 139 20H98Z" fill="#FEEAFE"/>
<path d="M106.251 172.451C106.308 168.28 109.756 164.957 113.926 165.054L159.25 166.112L105.649 216.834L106.251 172.451Z" fill="#C3C9D7" stroke="#270A3B" stroke-width="3"/>
<line x1="74" y1="-1.41111e-10" x2="74" y2="220" stroke="#270A3B" stroke-width="4"/>
<rect x="5" y="4" width="67" height="213" rx="3" fill="#E3177A"/>
<rect x="15.5" y="11.5" width="46" height="61" rx="4.5" fill="#85C8FB" stroke="#270A3B" stroke-width="3"/>
<path d="M38.5 49.5C50.6509 49.5 60.7232 59.5902 61.4551 72.4941C60.5301 72.4915 59.7465 72.4886 59.0859 72.4814C59.0008 72.4002 58.927 72.3467 58.8877 72.3203C58.7111 72.202 58.5505 72.1495 58.4971 72.1328C58.3699 72.0931 58.2638 72.0799 58.2363 72.0762C58.1917 72.0702 58.1536 72.0663 58.1289 72.0645C57.9055 72.0478 57.2985 72.0558 56.2275 72.0781C53.9804 72.125 49.2665 72.2494 40.1299 72.498C31.384 72.0005 26.9573 71.7523 24.8525 71.6582C24.3251 71.6346 23.9318 71.62 23.6484 71.6143C23.4162 71.6095 23.1345 71.6055 22.9219 71.6357C22.8795 71.6418 22.6954 71.6665 22.4893 71.7578C22.3964 71.799 22.1312 71.9245 21.9072 72.2109C21.864 72.2662 21.8254 72.3253 21.79 72.3867C20.5071 72.4427 18.5268 72.4843 15.5439 72.4951C16.2753 59.5907 26.3487 49.5 38.5 49.5Z" fill="#2B0D5F" stroke="#270A3B" stroke-width="3"/>
<line x1="14" y1="72.5" x2="63" y2="72.5" stroke="#270A3B" stroke-width="3"/>
<path d="M38.5004 27.5C43.9507 27.5002 48.7172 32.6663 48.7172 39.5C48.7172 46.3337 43.9507 51.4998 38.5004 51.5C33.0499 51.5 28.2826 46.3339 28.2826 39.5C28.2826 32.6661 33.0499 27.5 38.5004 27.5Z" fill="#2B0D5F" stroke="#270A3B" stroke-width="3"/>
<path d="M63 92.75C63.9665 92.75 64.75 91.9665 64.75 91C64.75 90.0335 63.9665 89.25 63 89.25V92.75ZM5 92.75H63V89.25H5V92.75Z" fill="#270A3B"/>
<path d="M144 52.75C144.966 52.75 145.75 51.9665 145.75 51C145.75 50.0335 144.966 49.25 144 49.25V52.75ZM94 52.75H144V49.25H94V52.75Z" fill="#270A3B"/>
<path d="M144 66.75C144.966 66.75 145.75 65.9665 145.75 65C145.75 64.0335 144.966 63.25 144 63.25V66.75ZM94 66.75H144V63.25H94V66.75Z" fill="#270A3B"/>
<path d="M144 80.75C144.966 80.75 145.75 79.9665 145.75 79C145.75 78.0335 144.966 77.25 144 77.25V80.75ZM94 80.75H144V77.25H94V80.75Z" fill="#270A3B"/>
<path d="M121 92.75C121.966 92.75 122.75 91.9665 122.75 91C122.75 90.0335 121.966 89.25 121 89.25V92.75ZM94 92.75H121V89.25H94V92.75Z" fill="#270A3B"/>
<path d="M140 92.75C140.966 92.75 141.75 91.9665 141.75 91C141.75 90.0335 140.966 89.25 140 89.25V92.75ZM130 92.75H140V89.25H130V92.75Z" fill="#270A3B"/>
<path d="M63 103.75C63.9665 103.75 64.75 102.966 64.75 102C64.75 101.034 63.9665 100.25 63 100.25V103.75ZM5 103.75H63V100.25H5V103.75Z" fill="#270A3B"/>
<path d="M45 114.75C45.9665 114.75 46.75 113.966 46.75 113C46.75 112.034 45.9665 111.25 45 111.25V114.75ZM5 114.75H45V111.25H5V114.75Z" fill="#270A3B"/>
<rect x="44.0499" y="194.462" width="70.4479" height="20.3859" rx="3" transform="rotate(-90.0406 44.0499 194.462)" fill="#F97998"/>
<rect x="6.5" y="134.5" width="56" height="12" rx="2.5" fill="#85C8FB" stroke="#270A3B" stroke-width="3"/>
<rect x="6.5" y="156.5" width="56" height="12" rx="2.5" fill="#3BC894" stroke="#270A3B" stroke-width="3"/>
<rect x="45.5" y="182.5" width="18" height="14" rx="2.5" fill="#FBAE5A" stroke="#270A3B" stroke-width="3"/>
<rect x="6.5" y="182.5" width="18" height="14" rx="2.5" fill="#FBAE5A" stroke="#270A3B" stroke-width="3"/>
<mask id="path-26-outside-2_26_25" maskUnits="userSpaceOnUse" x="93" y="15" width="35" height="22" fill="black">
<rect fill="white" x="93" y="15" width="35" height="22"/>
<path d="M110.179 22.5H107.801C107.661 21.8161 107.414 21.2152 107.063 20.6974C106.718 20.1797 106.296 19.745 105.797 19.3935C105.305 19.0355 104.759 18.767 104.158 18.5881C103.557 18.4091 102.93 18.3196 102.278 18.3196C101.089 18.3196 100.012 18.62 99.0472 19.2209C98.0884 19.8217 97.3246 20.707 96.7557 21.8768C96.1932 23.0465 95.9119 24.4815 95.9119 26.1818C95.9119 27.8821 96.1932 29.3171 96.7557 30.4869C97.3246 31.6566 98.0884 32.5419 99.0472 33.1428C100.012 33.7436 101.089 34.044 102.278 34.044C102.93 34.044 103.557 33.9545 104.158 33.7756C104.759 33.5966 105.305 33.3313 105.797 32.9798C106.296 32.6218 106.718 32.1839 107.063 31.6662C107.414 31.142 107.661 30.5412 107.801 29.8636H110.179C110 30.8672 109.674 31.7653 109.201 32.5579C108.728 33.3505 108.14 34.0249 107.437 34.581C106.734 35.1307 105.944 35.5494 105.069 35.837C104.199 36.1246 103.269 36.2685 102.278 36.2685C100.604 36.2685 99.1143 35.8594 97.8104 35.0412C96.5064 34.223 95.4805 33.0597 94.7326 31.5511C93.9847 30.0426 93.6108 28.2528 93.6108 26.1818C93.6108 24.1108 93.9847 22.321 94.7326 20.8125C95.4805 19.304 96.5064 18.1406 97.8104 17.3224C99.1143 16.5043 100.604 16.0952 102.278 16.0952C103.269 16.0952 104.199 16.239 105.069 16.5266C105.944 16.8143 106.734 17.2362 107.437 17.7923C108.14 18.342 108.728 19.0131 109.201 19.8058C109.674 20.592 110 21.4901 110.179 22.5ZM127.107 21.2727L121.661 36H119.36L113.914 21.2727H116.369L120.434 33.0085H120.587L124.653 21.2727H127.107Z"/>
</mask>
<path d="M110.179 22.5H107.801C107.661 21.8161 107.414 21.2152 107.063 20.6974C106.718 20.1797 106.296 19.745 105.797 19.3935C105.305 19.0355 104.759 18.767 104.158 18.5881C103.557 18.4091 102.93 18.3196 102.278 18.3196C101.089 18.3196 100.012 18.62 99.0472 19.2209C98.0884 19.8217 97.3246 20.707 96.7557 21.8768C96.1932 23.0465 95.9119 24.4815 95.9119 26.1818C95.9119 27.8821 96.1932 29.3171 96.7557 30.4869C97.3246 31.6566 98.0884 32.5419 99.0472 33.1428C100.012 33.7436 101.089 34.044 102.278 34.044C102.93 34.044 103.557 33.9545 104.158 33.7756C104.759 33.5966 105.305 33.3313 105.797 32.9798C106.296 32.6218 106.718 32.1839 107.063 31.6662C107.414 31.142 107.661 30.5412 107.801 29.8636H110.179C110 30.8672 109.674 31.7653 109.201 32.5579C108.728 33.3505 108.14 34.0249 107.437 34.581C106.734 35.1307 105.944 35.5494 105.069 35.837C104.199 36.1246 103.269 36.2685 102.278 36.2685C100.604 36.2685 99.1143 35.8594 97.8104 35.0412C96.5064 34.223 95.4805 33.0597 94.7326 31.5511C93.9847 30.0426 93.6108 28.2528 93.6108 26.1818C93.6108 24.1108 93.9847 22.321 94.7326 20.8125C95.4805 19.304 96.5064 18.1406 97.8104 17.3224C99.1143 16.5043 100.604 16.0952 102.278 16.0952C103.269 16.0952 104.199 16.239 105.069 16.5266C105.944 16.8143 106.734 17.2362 107.437 17.7923C108.14 18.342 108.728 19.0131 109.201 19.8058C109.674 20.592 110 21.4901 110.179 22.5ZM127.107 21.2727L121.661 36H119.36L113.914 21.2727H116.369L120.434 33.0085H120.587L124.653 21.2727H127.107Z" fill="black"/>
<path d="M110.179 22.5V23.1H110.895L110.77 22.3953L110.179 22.5ZM107.801 22.5L107.213 22.6208L107.312 23.1H107.801V22.5ZM107.063 20.6974L106.564 21.0303L106.566 21.0345L107.063 20.6974ZM105.797 19.3935L105.444 19.8788L105.451 19.8838L105.797 19.3935ZM104.158 18.5881L103.986 19.1631L104.158 18.5881ZM99.0472 19.2209L98.7301 18.7115L98.7286 18.7125L99.0472 19.2209ZM96.7557 21.8768L96.2161 21.6144L96.215 21.6168L96.7557 21.8768ZM96.7557 30.4869L96.2149 30.7469L96.2161 30.7493L96.7557 30.4869ZM99.0472 33.1428L98.7286 33.6512L98.7301 33.6521L99.0472 33.1428ZM104.158 33.7756L103.986 33.2005L104.158 33.7756ZM105.797 32.9798L106.146 33.468L106.147 33.4672L105.797 32.9798ZM107.063 31.6662L106.565 31.332L106.564 31.3334L107.063 31.6662ZM107.801 29.8636V29.2636H107.313L107.214 29.7417L107.801 29.8636ZM110.179 29.8636L110.77 29.969L110.895 29.2636H110.179V29.8636ZM109.201 32.5579L108.686 32.2504V32.2504L109.201 32.5579ZM107.437 34.581L107.806 35.0537L107.809 35.0516L107.437 34.581ZM105.069 35.837L104.881 35.267L104.88 35.2674L105.069 35.837ZM97.8104 35.0412L97.4915 35.5494L97.8104 35.0412ZM94.7326 31.5511L95.2702 31.2846L94.7326 31.5511ZM105.069 16.5266L104.88 17.0963L104.881 17.0967L105.069 16.5266ZM107.437 17.7923L107.065 18.2629L107.067 18.2649L107.437 17.7923ZM109.201 19.8058L108.686 20.1132L108.687 20.1151L109.201 19.8058ZM110.179 21.9H107.801V23.1H110.179V21.9ZM108.389 22.3792C108.234 21.6268 107.96 20.9507 107.559 20.3604L106.566 21.0345C106.869 21.4797 107.087 22.0053 107.213 22.6208L108.389 22.3792ZM107.562 20.3646C107.177 19.7866 106.703 19.2981 106.143 18.9031L105.451 19.8838C105.888 20.1919 106.259 20.5728 106.564 21.0303L107.562 20.3646ZM106.15 18.9082C105.601 18.5091 104.993 18.2108 104.329 18.013L103.986 19.1631C104.524 19.3233 105.009 19.562 105.444 19.8787L106.15 18.9082ZM104.329 18.013C103.67 17.8168 102.986 17.7196 102.278 17.7196V18.9196C102.875 18.9196 103.443 19.0013 103.986 19.1631L104.329 18.013ZM102.278 17.7196C100.983 17.7196 99.795 18.0486 98.7301 18.7115L99.3643 19.7302C100.23 19.1914 101.196 18.9196 102.278 18.9196V17.7196ZM98.7286 18.7125C97.661 19.3815 96.8267 20.359 96.2161 21.6144L97.2953 22.1392C97.8225 21.0551 98.5158 20.262 99.3658 19.7293L98.7286 18.7125ZM96.215 21.6168C95.6033 22.8887 95.3119 24.4183 95.3119 26.1818H96.5119C96.5119 24.5448 96.7831 23.2043 97.2964 22.1368L96.215 21.6168ZM95.3119 26.1818C95.3119 27.9454 95.6033 29.4749 96.215 30.7469L97.2964 30.2268C96.7831 29.1593 96.5119 27.8188 96.5119 26.1818H95.3119ZM96.2161 30.7493C96.8267 32.0047 97.661 32.9821 98.7286 33.6512L99.3658 32.6343C98.5158 32.1017 97.8225 31.3086 97.2953 30.2244L96.2161 30.7493ZM98.7301 33.6521C99.795 34.315 100.983 34.644 102.278 34.644V33.444C101.196 33.444 100.23 33.1722 99.3643 32.6334L98.7301 33.6521ZM102.278 34.644C102.986 34.644 103.67 34.5468 104.329 34.3506L103.986 33.2005C103.443 33.3623 102.875 33.444 102.278 33.444V34.644ZM104.329 34.3506C104.991 34.1534 105.598 33.8595 106.146 33.468L105.448 32.4915C105.012 32.8031 104.526 33.0398 103.986 33.2005L104.329 34.3506ZM106.147 33.4672C106.705 33.0665 107.177 32.576 107.562 31.999L106.564 31.3334C106.258 31.7919 105.886 32.1771 105.447 32.4924L106.147 33.4672ZM107.561 32.0004C107.96 31.406 108.234 30.7316 108.389 29.9856L107.214 29.7417C107.087 30.3507 106.869 30.8781 106.565 31.332L107.561 32.0004ZM107.801 30.4636H110.179V29.2636H107.801V30.4636ZM109.588 29.7583C109.421 30.6979 109.118 31.5262 108.686 32.2504L109.716 32.8654C110.23 32.0043 110.579 31.0365 110.77 29.969L109.588 29.7583ZM108.686 32.2504C108.249 32.9823 107.709 33.6008 107.065 34.1104L107.809 35.0516C108.571 34.4489 109.207 33.7187 109.716 32.8654L108.686 32.2504ZM107.067 34.1083C106.421 34.6138 105.693 35.0003 104.881 35.267L105.256 36.407C106.195 36.0985 107.047 35.6475 107.806 35.0536L107.067 34.1083ZM104.88 35.2674C104.076 35.5333 103.21 35.6685 102.278 35.6685V36.8685C103.328 36.8685 104.322 36.716 105.257 36.4066L104.88 35.2674ZM102.278 35.6685C100.706 35.6685 99.3293 35.2859 98.1293 34.533L97.4915 35.5494C98.8994 36.4328 100.501 36.8685 102.278 36.8685V35.6685ZM98.1293 34.533C96.9278 33.7791 95.9736 32.7036 95.2702 31.2846L94.195 31.8176C94.9873 33.4158 96.085 34.6669 97.4915 35.5494L98.1293 34.533ZM95.2702 31.2846C94.5717 29.8758 94.2108 28.1813 94.2108 26.1818H93.0108C93.0108 28.3244 93.3977 30.2094 94.195 31.8176L95.2702 31.2846ZM94.2108 26.1818C94.2108 24.1824 94.5717 22.4878 95.2702 21.079L94.195 20.546C93.3977 22.1542 93.0108 24.0392 93.0108 26.1818H94.2108ZM95.2702 21.079C95.9736 19.6601 96.9278 18.5845 98.1293 17.8307L97.4915 16.8142C96.085 17.6967 94.9873 18.9479 94.195 20.546L95.2702 21.079ZM98.1293 17.8307C99.3293 17.0777 100.706 16.6952 102.278 16.6952V15.4952C100.501 15.4952 98.8994 15.9308 97.4915 16.8142L98.1293 17.8307ZM102.278 16.6952C103.21 16.6952 104.076 16.8303 104.88 17.0963L105.257 15.957C104.322 15.6477 103.328 15.4952 102.278 15.4952V16.6952ZM104.881 17.0967C105.692 17.3629 106.418 17.7517 107.065 18.2629L107.809 17.3217C107.049 16.7206 106.197 16.2656 105.256 15.9566L104.881 17.0967ZM107.067 18.2649C107.71 18.7675 108.249 19.382 108.686 20.1132L109.716 19.4983C109.207 18.6443 108.57 17.9165 107.806 17.3196L107.067 18.2649ZM108.687 20.1151C109.118 20.8314 109.421 21.6586 109.588 22.6047L110.77 22.3953C110.579 21.3215 110.23 20.3526 109.715 19.4964L108.687 20.1151ZM127.107 21.2727L127.67 21.4808L127.969 20.6727H127.107V21.2727ZM121.661 36V36.6H122.079L122.224 36.2081L121.661 36ZM119.36 36L118.797 36.2081L118.942 36.6H119.36V36ZM113.914 21.2727V20.6727H113.052L113.351 21.4808L113.914 21.2727ZM116.369 21.2727L116.936 21.0763L116.796 20.6727H116.369V21.2727ZM120.434 33.0085L119.867 33.2049L120.007 33.6085H120.434V33.0085ZM120.587 33.0085V33.6085H121.014L121.154 33.2049L120.587 33.0085ZM124.653 21.2727V20.6727H124.226L124.086 21.0763L124.653 21.2727ZM126.544 21.0646L121.098 35.7919L122.224 36.2081L127.67 21.4808L126.544 21.0646ZM121.661 35.4H119.36V36.6H121.661V35.4ZM119.923 35.7919L114.477 21.0646L113.351 21.4808L118.797 36.2081L119.923 35.7919ZM113.914 21.8727H116.369V20.6727H113.914V21.8727ZM115.802 21.4691L119.867 33.2049L121.001 32.8121L116.936 21.0763L115.802 21.4691ZM120.434 33.6085H120.587V32.4085H120.434V33.6085ZM121.154 33.2049L125.22 21.4691L124.086 21.0763L120.02 32.8121L121.154 33.2049ZM124.653 21.8727H127.107V20.6727H124.653V21.8727Z" fill="black" mask="url(#path-26-outside-2_26_25)"/>
</svg>
